<svg id="Layer_1" data-name="Layer 1" xmlns="http://www.w3.org/2000/svg" viewBox="0 0 303 112.1"><defs><style>.cls-1,.cls-6{fill:#fff;}.cls-1,.cls-2,.cls-3,.cls-4,.cls-5,.cls-7,.cls-8,.cls-9{stroke:#000;stroke-miterlimit:10;stroke-width:2px;}.cls-2{fill:#e4ff55;}.cls-3{fill:#55ff63;}.cls-4{fill:#8ae9ff;}.cls-5{fill:#ca9fff;}.cls-7{fill:#c8c8c8;}.cls-8{fill:#ffb455;}.cls-9{fill:#81ff00;}.cls-10{isolation:isolate;font-size:10px;font-family:Consolas-Bold, Consolas;font-weight:700;}</style></defs><title>sprinkles-keyboard</title><path d="M291.4,3.9c4.3,0,7.9,4,7.9,9V98.4c0,4.9-3.5,9-7.9,9H11.6c-4.3,0-7.9-4-7.9-9V12.9c0-4.9,3.5-9,7.9-9H291.4m0-4.3H11.6C5.2-.4,0,5.6,0,12.9H0V98.4c0,7.3,5.2,13.3,11.6,13.3H291.4c6.4,0,11.6-5.9,11.6-13.3V12.9C303,5.6,297.8-.4,291.4-.4Z" transform="translate(0 0.4)"/><path class="cls-1" d="M31.5,67.4H11.3a.79.79,0,0,1-.8-.8V56.8a.79.79,0,0,1,.8-.8H31.5a.79.79,0,0,1,.8.8v9.8A.86.86,0,0,1,31.5,67.4Z" transform="translate(0 0.4)"/><path class="cls-1" d="M27.2,51.3H11.3a.79.79,0,0,1-.8-.8V40.7a.79.79,0,0,1,.8-.8H27.2a.79.79,0,0,1,.8.8v9.8A.86.86,0,0,1,27.2,51.3Z" transform="translate(0 0.4)"/><path class="cls-1" d="M21,35.2H11.3a.79.79,0,0,1-.8-.8V24.6a.79.79,0,0,1,.8-.8H21a.79.79,0,0,1,.8.8v9.8C21.9,34.9,21.5,35.2,21,35.2Z" transform="translate(0 0.4)"/><path class="cls-1" d="M21,19.5H11.3c-.5,0-.8-.3-.8-.5V12.5c0-.3.4-.5.8-.5H21c.5,0,.8.3.8.5V19C21.9,19.3,21.5,19.5,21,19.5Z" transform="translate(0 0.4)"/><path class="cls-1" d="M44.2,19.5H34.4c-.5,0-.8-.3-.8-.5V12.5c0-.3.4-.5.8-.5h9.8c.5,0,.8.3.8.5V19C45,19.3,44.6,19.5,44.2,19.5Z" transform="translate(0 0.4)"/><path class="cls-1" d="M60.3,19.5H50.5c-.5,0-.8-.3-.8-.5V12.5c0-.3.4-.5.8-.5h9.8c.5,0,.8.3.8.5V19C61.2,19.3,60.8,19.5,60.3,19.5Z" transform="translate(0 0.4)"/><path class="cls-1" d="M76.3,19.5H66.5c-.5,0-.8-.3-.8-.5V12.5c0-.3.4-.5.8-.5h9.8c.5,0,.8.3.8.5V19C77.2,19.3,76.8,19.5,76.3,19.5Z" transform="translate(0 0.4)"/><path class="cls-1" d="M92.5,19.5H82.7c-.5,0-.8-.3-.8-.5V12.5c0-.3.4-.5.8-.5h9.8c.5,0,.8.3.8.5V19C93.3,19.3,93,19.5,92.5,19.5Z" transform="translate(0 0.4)"/><path class="cls-1" d="M37.2,35.2H27.4a.79.79,0,0,1-.8-.8V24.6a.79.79,0,0,1,.8-.8h9.8a.79.79,0,0,1,.8.8v9.8A.79.79,0,0,1,37.2,35.2Z" transform="translate(0 0.4)"/><path class="cls-1" d="M53.2,35.2H43.4a.79.79,0,0,1-.8-.8V24.6a.79.79,0,0,1,.8-.8h9.8a.79.79,0,0,1,.8.8v9.8A.79.79,0,0,1,53.2,35.2Z" transform="translate(0 0.4)"/><path class="cls-1" d="M69,35.2H59.3a.79.79,0,0,1-.8-.8V24.6a.79.79,0,0,1,.8-.8H69a.79.79,0,0,1,.8.8v9.8C69.9,34.9,69.5,35.2,69,35.2Z" transform="translate(0 0.4)"/><path class="cls-1" d="M84.8,35.2H75a.79.79,0,0,1-.8-.8V24.6a.79.79,0,0,1,.8-.8h9.8a.79.79,0,0,1,.8.8v9.8A.74.74,0,0,1,84.8,35.2Z" transform="translate(0 0.4)"/><path class="cls-1" d="M100.5,35.2H90.7a.79.79,0,0,1-.8-.8V24.6a.79.79,0,0,1,.8-.8h9.8a.79.79,0,0,1,.8.8v9.8A.74.74,0,0,1,100.5,35.2Z" transform="translate(0 0.4)"/><path class="cls-1" d="M116.2,35.2h-9.8a.79.79,0,0,1-.8-.8V24.6a.79.79,0,0,1,.8-.8h9.8a.79.79,0,0,1,.8.8v9.8A.74.74,0,0,1,116.2,35.2Z" transform="translate(0 0.4)"/><path class="cls-1" d="M42.9,51.3H33.1a.79.79,0,0,1-.8-.8V40.7a.79.79,0,0,1,.8-.8h9.8a.79.79,0,0,1,.8.8v9.8A.86.86,0,0,1,42.9,51.3Z" transform="translate(0 0.4)"/><path class="cls-1" d="M58.9,51.3H49.1a.79.79,0,0,1-.8-.8V40.7a.79.79,0,0,1,.8-.8h9.8a.79.79,0,0,1,.8.8v9.8A.86.86,0,0,1,58.9,51.3Z" transform="translate(0 0.4)"/><path class="cls-1" d="M74.8,51.3H65a.79.79,0,0,1-.8-.8V40.7a.79.79,0,0,1,.8-.8h9.8a.79.79,0,0,1,.8.8v9.8A.86.86,0,0,1,74.8,51.3Z" transform="translate(0 0.4)"/><path class="cls-1" d="M90.5,51.3H80.7a.79.79,0,0,1-.8-.8V40.7a.79.79,0,0,1,.8-.8h9.8a.79.79,0,0,1,.8.8v9.8A.79.79,0,0,1,90.5,51.3Z" transform="translate(0 0.4)"/><path class="cls-1" d="M106.2,51.3H96.4a.79.79,0,0,1-.8-.8V40.7a.79.79,0,0,1,.8-.8h9.8a.79.79,0,0,1,.8.8v9.8A.79.79,0,0,1,106.2,51.3Z" transform="translate(0 0.4)"/><path class="cls-1" d="M121.9,51.3h-9.8a.79.79,0,0,1-.8-.8V40.7a.79.79,0,0,1,.8-.8h9.8a.79.79,0,0,1,.8.8v9.8C122.8,50.9,122.4,51.3,121.9,51.3Z" transform="translate(0 0.4)"/><path class="cls-2" d="M47.8,67.4H38a.79.79,0,0,1-.8-.8V56.8A.79.79,0,0,1,38,56h9.8a.79.79,0,0,1,.8.8v9.8A.86.86,0,0,1,47.8,67.4Z" transform="translate(0 0.4)"/><path class="cls-3" d="M63.8,67.4H54a.79.79,0,0,1-.8-.8V56.8A.79.79,0,0,1,54,56h9.8a.79.79,0,0,1,.8.8v9.8A.86.86,0,0,1,63.8,67.4Z" transform="translate(0 0.4)"/><path class="cls-4" d="M79.6,67.4H69.8a.79.79,0,0,1-.8-.8V56.8a.79.79,0,0,1,.8-.8h9.8a.79.79,0,0,1,.8.8v9.8C80.5,67,80.1,67.4,79.6,67.4Z" transform="translate(0 0.4)"/><path class="cls-5" d="M95.4,67.4H85.6a.79.79,0,0,1-.8-.8V56.8a.79.79,0,0,1,.8-.8h9.8a.79.79,0,0,1,.8.8v9.8A.86.86,0,0,1,95.4,67.4Z" transform="translate(0 0.4)"/><path class="cls-1" d="M111.1,67.4h-9.8a.79.79,0,0,1-.8-.8V56.8a.79.79,0,0,1,.8-.8h9.8a.79.79,0,0,1,.8.8v9.8A.86.86,0,0,1,111.1,67.4Z" transform="translate(0 0.4)"/><path class="cls-1" d="M126.8,67.4H117a.79.79,0,0,1-.8-.8V56.8a.79.79,0,0,1,.8-.8h9.8a.79.79,0,0,1,.8.8v9.8A.79.79,0,0,1,126.8,67.4Z" transform="translate(0 0.4)"/><path class="cls-1" d="M158,100H72.3a.71.71,0,0,1-.7-.8V89.4a.77.77,0,0,1,.7-.8H158a.71.71,0,0,1,.7.8v9.8A.77.77,0,0,1,158,100Z" transform="translate(0 0.4)"/><path class="cls-1" d="M142.3,67.4h-9.8a.79.79,0,0,1-.8-.8V56.8a.79.79,0,0,1,.8-.8h9.8a.79.79,0,0,1,.8.8v9.8A.79.79,0,0,1,142.3,67.4Z" transform="translate(0 0.4)"/><path class="cls-1" d="M158,67.4h-9.8a.79.79,0,0,1-.8-.8V56.8a.79.79,0,0,1,.8-.8H158a.79.79,0,0,1,.8.8v9.8C158.9,67,158.5,67.4,158,67.4Z" transform="translate(0 0.4)"/><path class="cls-1" d="M173.8,67.4H164a.79.79,0,0,1-.8-.8V56.8a.79.79,0,0,1,.8-.8h9.8a.79.79,0,0,1,.8.8v9.8A.86.86,0,0,1,173.8,67.4Z" transform="translate(0 0.4)"/><path class="cls-1" d="M189.5,67.4h-9.8a.79.79,0,0,1-.8-.8V56.8a.79.79,0,0,1,.8-.8h9.8a.79.79,0,0,1,.8.8v9.8A.86.86,0,0,1,189.5,67.4Z" transform="translate(0 0.4)"/><rect class="cls-6" x="152.8" y="44.9" width="7" height="7"/><path class="cls-1" d="M137.7,51.2H128a.79.79,0,0,1-.8-.8V40.6a.79.79,0,0,1,.8-.8h9.8a.79.79,0,0,1,.8.8v9.8A.88.88,0,0,1,137.7,51.2Z" transform="translate(0 0.4)"/><path class="cls-1" d="M153.7,51.2H144a.79.79,0,0,1-.8-.8V40.6a.79.79,0,0,1,.8-.8h9.8a.79.79,0,0,1,.8.8v9.8A.88.88,0,0,1,153.7,51.2Z" transform="translate(0 0.4)"/><path class="cls-1" d="M169.6,51.2h-9.8a.79.79,0,0,1-.8-.8V40.6a.79.79,0,0,1,.8-.8h9.8a.79.79,0,0,1,.8.8v9.8A.79.79,0,0,1,169.6,51.2Z" transform="translate(0 0.4)"/><path class="cls-1" d="M185.3,51.2h-9.8a.79.79,0,0,1-.8-.8V40.6a.79.79,0,0,1,.8-.8h9.8a.79.79,0,0,1,.8.8v9.8C186.2,50.8,185.8,51.2,185.3,51.2Z" transform="translate(0 0.4)"/><path class="cls-1" d="M201.1,51.2h-9.8a.79.79,0,0,1-.8-.8V40.6a.79.79,0,0,1,.8-.8h9.8a.79.79,0,0,1,.8.8v9.8A.86.86,0,0,1,201.1,51.2Z" transform="translate(0 0.4)"/><path class="cls-1" d="M216.8,51.2H207a.79.79,0,0,1-.8-.8V40.6a.79.79,0,0,1,.8-.8h9.8a.79.79,0,0,1,.8.8v9.8A.86.86,0,0,1,216.8,51.2Z" transform="translate(0 0.4)"/><path class="cls-1" d="M238.2,83.7H203.6a.79.79,0,0,1-.8-.8V73.1a.79.79,0,0,1,.8-.8h34.6a.79.79,0,0,1,.8.8v9.8A.86.86,0,0,1,238.2,83.7Z" transform="translate(0 0.4)"/><path class="cls-7" d="M259.2,99.7h-9.8a.79.79,0,0,1-.8-.8V89.1a.79.79,0,0,1,.8-.8h9.8a.79.79,0,0,1,.8.8v9.8A.79.79,0,0,1,259.2,99.7Z" transform="translate(0 0.4)"/><path class="cls-8" d="M275,99.7h-9.8a.79.79,0,0,1-.8-.8V89.1a.79.79,0,0,1,.8-.8H275a.79.79,0,0,1,.8.8v9.8C275.9,99.3,275.5,99.7,275,99.7Z" transform="translate(0 0.4)"/><path class="cls-9" d="M275,83.4h-9.8a.79.79,0,0,1-.8-.8V72.8a.79.79,0,0,1,.8-.8H275a.79.79,0,0,1,.8.8v9.8C275.9,83,275.5,83.4,275,83.4Z" transform="translate(0 0.4)"/><path class="cls-7" d="M290.8,99.7H281a.79.79,0,0,1-.8-.8V89.1a.79.79,0,0,1,.8-.8h9.8a.79.79,0,0,1,.8.8v9.8C291.7,99.3,291.3,99.7,290.8,99.7Z" transform="translate(0 0.4)"/><path class="cls-1" d="M131.9,35.2h-9.8a.79.79,0,0,1-.8-.8V24.6a.79.79,0,0,1,.8-.8h9.8a.79.79,0,0,1,.8.8v9.8A.79.79,0,0,1,131.9,35.2Z" transform="translate(0 0.4)"/><path class="cls-1" d="M148,35.2h-9.8a.79.79,0,0,1-.8-.8V24.6a.79.79,0,0,1,.8-.8H148a.79.79,0,0,1,.8.8v9.8A.74.74,0,0,1,148,35.2Z" transform="translate(0 0.4)"/><path class="cls-1" d="M164,35.2h-9.8a.79.79,0,0,1-.8-.8V24.6a.79.79,0,0,1,.8-.8H164a.79.79,0,0,1,.8.8v9.8A.74.74,0,0,1,164,35.2Z" transform="translate(0 0.4)"/><path class="cls-1" d="M179.9,35.2h-9.8a.79.79,0,0,1-.8-.8V24.6a.79.79,0,0,1,.8-.8h9.8a.79.79,0,0,1,.8.8v9.8A.79.79,0,0,1,179.9,35.2Z" transform="translate(0 0.4)"/><path class="cls-1" d="M195.6,35.2h-9.8a.79.79,0,0,1-.8-.8V24.6a.79.79,0,0,1,.8-.8h9.8a.79.79,0,0,1,.8.8v9.8C196.5,34.9,196.1,35.2,195.6,35.2Z" transform="translate(0 0.4)"/><path class="cls-1" d="M211.3,35.2h-9.8a.79.79,0,0,1-.8-.8V24.6a.79.79,0,0,1,.8-.8h9.8a.79.79,0,0,1,.8.8v9.8C212.2,34.9,211.8,35.2,211.3,35.2Z" transform="translate(0 0.4)"/><path class="cls-1" d="M37.6,83.7H11.3a.79.79,0,0,1-.8-.8V73.1a.79.79,0,0,1,.8-.8H37.7a.79.79,0,0,1,.8.8v9.8A.88.88,0,0,1,37.6,83.7Z" transform="translate(0 0.4)"/><path class="cls-1" d="M53.6,83.7H43.8a.79.79,0,0,1-.8-.8V73.1a.79.79,0,0,1,.8-.8h9.8a.79.79,0,0,1,.8.8v9.8C54.5,83.3,54.1,83.7,53.6,83.7Z" transform="translate(0 0.4)"/><path class="cls-1" d="M69.5,83.7H59.7a.79.79,0,0,1-.8-.8V73.1a.79.79,0,0,1,.8-.8h9.8a.79.79,0,0,1,.8.8v9.8C70.4,83.3,70,83.7,69.5,83.7Z" transform="translate(0 0.4)"/><path class="cls-1" d="M85.3,83.7H75.5a.79.79,0,0,1-.8-.8V73.1a.79.79,0,0,1,.8-.8h9.8a.79.79,0,0,1,.8.8v9.8A.86.86,0,0,1,85.3,83.7Z" transform="translate(0 0.4)"/><path class="cls-1" d="M101,83.7H91.2a.79.79,0,0,1-.8-.8V73.1a.79.79,0,0,1,.8-.8H101a.79.79,0,0,1,.8.8v9.8A.86.86,0,0,1,101,83.7Z" transform="translate(0 0.4)"/><path class="cls-1" d="M116.7,83.7h-9.8a.79.79,0,0,1-.8-.8V73.1a.79.79,0,0,1,.8-.8h9.8a.79.79,0,0,1,.8.8v9.8A.86.86,0,0,1,116.7,83.7Z" transform="translate(0 0.4)"/><path class="cls-1" d="M132.2,83.7h-9.8a.79.79,0,0,1-.8-.8V73.1a.79.79,0,0,1,.8-.8h9.8a.79.79,0,0,1,.8.8v9.8A.86.86,0,0,1,132.2,83.7Z" transform="translate(0 0.4)"/><path class="cls-1" d="M147.9,83.7h-9.8a.79.79,0,0,1-.8-.8V73.1a.79.79,0,0,1,.8-.8h9.8a.79.79,0,0,1,.8.8v9.8C148.8,83.3,148.4,83.7,147.9,83.7Z" transform="translate(0 0.4)"/><path class="cls-1" d="M163.6,83.7h-9.8a.79.79,0,0,1-.8-.8V73.1a.79.79,0,0,1,.8-.8h9.8a.79.79,0,0,1,.8.8v9.8C164.5,83.3,164.1,83.7,163.6,83.7Z" transform="translate(0 0.4)"/><path class="cls-1" d="M179.4,83.7h-9.8a.79.79,0,0,1-.8-.8V73.1a.79.79,0,0,1,.8-.8h9.8a.79.79,0,0,1,.8.8v9.8A.86.86,0,0,1,179.4,83.7Z" transform="translate(0 0.4)"/><path class="cls-1" d="M195.4,83.7h-9.8a.79.79,0,0,1-.8-.8V73.1a.79.79,0,0,1,.8-.8h9.8a.79.79,0,0,1,.8.8v9.8A.86.86,0,0,1,195.4,83.7Z" transform="translate(0 0.4)"/><path class="cls-1" d="M110.7,19.5h-9.8c-.5,0-.8-.3-.8-.5V12.5c0-.3.4-.5.8-.5h9.8c.5,0,.8.3.8.5V19C111.5,19.3,111.1,19.5,110.7,19.5Z" transform="translate(0 0.4)"/><path class="cls-1" d="M126.8,19.5H117c-.5,0-.8-.3-.8-.5V12.5c0-.3.4-.5.8-.5h9.8c.5,0,.8.3.8.5V19C127.7,19.3,127.3,19.5,126.8,19.5Z" transform="translate(0 0.4)"/><path class="cls-1" d="M142.8,19.5H133c-.5,0-.8-.3-.8-.5V12.5c0-.3.4-.5.8-.5h9.8c.5,0,.8.3.8.5V19C143.7,19.3,143.3,19.5,142.8,19.5Z" transform="translate(0 0.4)"/><path class="cls-1" d="M159,19.5h-9.8c-.5,0-.8-.3-.8-.5V12.5c0-.3.4-.5.8-.5H159c.5,0,.8.3.8.5V19C159.8,19.3,159.5,19.5,159,19.5Z" transform="translate(0 0.4)"/><path class="cls-1" d="M177.4,19.5h-9.8c-.5,0-.8-.3-.8-.5V12.5c0-.3.4-.5.8-.5h9.8c.5,0,.8.3.8.5V19C178.3,19.3,177.9,19.5,177.4,19.5Z" transform="translate(0 0.4)"/><path class="cls-1" d="M193.6,19.5h-9.8c-.5,0-.8-.3-.8-.5V12.5c0-.3.4-.5.8-.5h9.8c.5,0,.8.3.8.5V19C194.4,19.3,194,19.5,193.6,19.5Z" transform="translate(0 0.4)"/><path class="cls-1" d="M209.6,19.5h-9.8c-.5,0-.8-.3-.8-.5V12.5c0-.3.4-.5.8-.5h9.8c.5,0,.8.3.8.5V19C210.4,19.3,210,19.5,209.6,19.5Z" transform="translate(0 0.4)"/><path class="cls-1" d="M225.8,19.5H216c-.5,0-.8-.3-.8-.5V12.5c0-.3.4-.5.8-.5h9.8c.5,0,.8.3.8.5V19C226.6,19.3,226.2,19.5,225.8,19.5Z" transform="translate(0 0.4)"/><path class="cls-1" d="M259.2,51.2h-9.8a.79.79,0,0,1-.8-.8V40.6a.79.79,0,0,1,.8-.8h9.8a.79.79,0,0,1,.8.8v9.8C260.1,50.8,259.7,51.2,259.2,51.2Z" transform="translate(0 0.4)"/><path class="cls-1" d="M275.1,51.2h-9.8a.79.79,0,0,1-.8-.8V40.6a.79.79,0,0,1,.8-.8h9.8a.79.79,0,0,1,.8.8v9.8A.86.86,0,0,1,275.1,51.2Z" transform="translate(0 0.4)"/><path class="cls-1" d="M290.8,51.2H281a.79.79,0,0,1-.8-.8V40.6a.79.79,0,0,1,.8-.8h9.8a.79.79,0,0,1,.8.8v9.8C291.7,50.8,291.3,51.2,290.8,51.2Z" transform="translate(0 0.4)"/><path class="cls-1" d="M259.3,35.2h-9.7a.79.79,0,0,1-.8-.8V24.6a.79.79,0,0,1,.8-.8h9.7a.79.79,0,0,1,.8.8v9.8A.79.79,0,0,1,259.3,35.2Z" transform="translate(0 0.4)"/><path class="cls-1" d="M275.1,35.2h-9.8a.79.79,0,0,1-.8-.8V24.6a.79.79,0,0,1,.8-.8h9.8a.79.79,0,0,1,.8.8v9.8A.74.74,0,0,1,275.1,35.2Z" transform="translate(0 0.4)"/><path class="cls-1" d="M290.9,35.2h-9.8a.79.79,0,0,1-.8-.8V24.6a.79.79,0,0,1,.8-.8h9.8a.79.79,0,0,1,.8.8v9.8A.79.79,0,0,1,290.9,35.2Z" transform="translate(0 0.4)"/><path class="cls-1" d="M259.2,19.5h-9.8c-.5,0-.8-.3-.8-.5V12.5c0-.3.4-.5.8-.5h9.8c.5,0,.8.3.8.5V19C260.1,19.3,259.7,19.5,259.2,19.5Z" transform="translate(0 0.4)"/><path class="cls-1" d="M275.1,19.5h-9.8c-.5,0-.8-.3-.8-.5V12.5c0-.3.4-.5.8-.5h9.8c.5,0,.8.3.8.5V19C275.9,19.3,275.5,19.5,275.1,19.5Z" transform="translate(0 0.4)"/><path class="cls-1" d="M290.8,19.5H281c-.5,0-.8-.3-.8-.5V12.5c0-.3.4-.5.8-.5h9.8c.5,0,.8.3.8.5V19C291.7,19.3,291.3,19.5,290.8,19.5Z" transform="translate(0 0.4)"/><path class="cls-1" d="M205,67.5h-9.8a.79.79,0,0,1-.8-.8V56.9a.79.79,0,0,1,.8-.8H205a.79.79,0,0,1,.8.8v9.7A.82.82,0,0,1,205,67.5Z" transform="translate(0 0.4)"/><path class="cls-1" d="M236.7,67.5H212.2c-1.3,0-2-.4-2-.8V56.9c0-.5,1-.8,2-.8H237c1.3,0,2,.4,2,.8v9.7C238.7,67.1,238,67.5,236.7,67.5Z" transform="translate(0 0.4)"/><path class="cls-1" d="M238.2,35.2H217.7a.79.79,0,0,1-.8-.8V24.6a.79.79,0,0,1,.8-.8h20.5a.79.79,0,0,1,.8.8v9.8A.79.79,0,0,1,238.2,35.2Z" transform="translate(0 0.4)"/><path class="cls-1" d="M238.2,51.2H223.4a.79.79,0,0,1-.8-.8V40.6a.79.79,0,0,1,.8-.8h14.8a.79.79,0,0,1,.8.8v9.8A.86.86,0,0,1,238.2,51.2Z" transform="translate(0 0.4)"/><path class="cls-1" d="M238,100.2H224.3a.92.92,0,0,1-1-.8V89.6a.91.91,0,0,1,1-.8H238a.92.92,0,0,1,1,.8v9.8A.92.92,0,0,1,238,100.2Z" transform="translate(0 0.4)"/><path class="cls-1" d="M217.3,100.2H203.6a.92.92,0,0,1-1-.8V89.6a.91.91,0,0,1,1-.8h13.7a.92.92,0,0,1,1,.8v9.8A1,1,0,0,1,217.3,100.2Z" transform="translate(0 0.4)"/><path class="cls-1" d="M197.2,100.2H183.5a.92.92,0,0,1-1-.8V89.6a.91.91,0,0,1,1-.8h13.7a.92.92,0,0,1,1,.8v9.8A.92.92,0,0,1,197.2,100.2Z" transform="translate(0 0.4)"/><path class="cls-1" d="M177.2,99.7H163.5a.92.92,0,0,1-1-.8V89.1a.91.91,0,0,1,1-.8h13.7a.92.92,0,0,1,1,.8v9.8A1,1,0,0,1,177.2,99.7Z" transform="translate(0 0.4)"/><path class="cls-1" d="M25.2,100H11.5a.92.92,0,0,1-1-.8V89.4a.91.91,0,0,1,1-.8H25.2a.92.92,0,0,1,1,.8v9.8A1,1,0,0,1,25.2,100Z" transform="translate(0 0.4)"/><path class="cls-1" d="M45.8,100H32.1a.92.92,0,0,1-1-.8V89.4a.91.91,0,0,1,1-.8H45.8a.92.92,0,0,1,1,.8v9.8A1,1,0,0,1,45.8,100Z" transform="translate(0 0.4)"/><path class="cls-1" d="M66.2,100H52.5a.92.92,0,0,1-1-.8V89.4a.91.91,0,0,1,1-.8H66.2a.92.92,0,0,1,1,.8v9.8A1,1,0,0,1,66.2,100Z" transform="translate(0 0.4)"/><text class="cls-10" transform="translate(40.05 65.23)">A</text><text class="cls-10" transform="translate(56.38 65.23)">S</text><text class="cls-10" transform="translate(72 65.23)">D</text><text class="cls-10" transform="translate(87.6 65.23)">F</text><polygon points="267.6 80.3 270.1 76 272.6 80.3 267.6 80.3"/><polygon points="272.6 92.6 270.1 96.9 267.6 92.6 272.6 92.6"/><polygon points="255.9 97.4 251.5 94.9 255.9 92.4 255.9 97.4"/><polygon points="284.3 92.4 288.7 94.9 284.3 97.4 284.3 92.4"/></svg>